<svg width="20" height="20" viewBox="0 0 20 20" fill="none" xmlns="http://www.w3.org/2000/svg">
<g clip-path="url(#clip0_1987_3362)">
<path d="M18.796 2.89715C18.0184 2.11951 16.9845 1.69124 15.8847 1.69124C14.7853 1.69124 13.7517 2.11924 12.9742 2.89641C12.974 2.89664 12.9737 2.89688 12.9734 2.89711L7.13011 8.74048L4.21712 11.6535C3.30023 12.5704 3.30023 14.0623 4.21712 14.9792C4.66129 15.4234 5.25182 15.668 5.87997 15.668C6.50813 15.668 7.09866 15.4234 7.54282 14.9792L15.727 6.79502C15.9558 6.56614 15.9558 6.19507 15.727 5.96619C15.4981 5.73731 15.127 5.73731 14.8981 5.96619L6.714 14.1503C6.49121 14.3731 6.19501 14.4958 5.87997 14.4958C5.56494 14.4958 5.26874 14.3731 5.04595 14.1503C4.82316 13.9276 4.70048 13.6313 4.70048 13.3163C4.70048 13.0013 4.82316 12.705 5.04595 12.4823L7.95894 9.56926L13.8017 3.72649C13.8019 3.72629 13.8021 3.72614 13.8023 3.72594C14.3585 3.16972 15.0981 2.86335 15.8847 2.86335C16.6714 2.86335 17.411 3.16968 17.9672 3.72594C19.1153 4.87406 19.1154 6.74216 17.9676 7.89047C17.9675 7.89059 17.9673 7.89071 17.9672 7.89082L9.21083 16.6472C7.37419 18.4838 4.38572 18.4838 2.54907 16.6472C0.712433 14.8105 0.712433 11.8221 2.54907 9.98542L10.7333 1.80127C10.9621 1.57239 10.9621 1.20132 10.7333 0.972443C10.5044 0.743561 10.1333 0.743561 9.90443 0.972443L1.72025 9.15663C-0.573416 11.4503 -0.573416 15.1824 1.72025 17.476C2.83137 18.5872 4.30863 19.1991 5.87993 19.1991C7.45128 19.1991 8.92854 18.5872 10.0397 17.476L18.7954 8.72024C18.7956 8.72004 18.7958 8.71988 18.796 8.71969C20.4013 7.11439 20.4013 4.50241 18.796 2.89715Z" fill="white"/>
</g>
<defs>
<clipPath id="clip0_1987_3362">
<rect width="20" height="20" fill="white"/>
</clipPath>
</defs>
</svg>
