<svg width="20" height="20" viewBox="0 0 20 20" fill="none" xmlns="http://www.w3.org/2000/svg">
<g clip-path="url(#clip0_1987_3359)">
<path d="M9.99966 0.384766C4.68443 0.384766 0.384277 4.69934 0.384277 10.0002C0.384277 15.2887 4.66889 19.6155 9.99966 19.6155C15.3131 19.6155 19.615 15.3023 19.615 10.0002C19.615 4.70277 15.3174 0.384766 9.99966 0.384766ZM16.7895 15.6698C16.0369 15.283 15.184 14.9808 14.3551 14.7657C14.7435 13.4404 14.9643 11.945 14.9955 10.3848H18.8374C18.7535 12.3252 18.0357 14.179 16.7895 15.6698ZM3.20974 15.6698C1.96366 14.179 1.24585 12.3252 1.16185 10.3848H5.00382C5.03505 11.945 5.25578 13.4404 5.64416 14.7657C4.81451 14.9813 3.97589 15.2776 3.20974 15.6698ZM3.20974 4.33046C3.97466 4.72234 4.81574 5.019 5.64416 5.23465C5.25578 6.55992 5.03505 8.05523 5.00382 9.61554H1.16185C1.24585 7.67511 1.96366 5.82127 3.20974 4.33046ZM14.1174 4.50284C13.728 3.41715 13.1484 2.2833 12.3375 1.4698C13.8052 1.87296 15.1572 2.65103 16.249 3.74007C15.5816 4.06215 14.8162 4.32815 14.1174 4.50284ZM10.3843 4.99569V1.19196C11.3235 1.376 12.212 2.2305 12.9192 3.64503C13.081 3.96857 13.2287 4.31296 13.3621 4.67496C12.3817 4.87169 11.376 4.97469 10.3843 4.99569ZM9.61505 4.99569C8.61485 4.97454 7.60643 4.86984 6.63724 4.67496C6.77059 4.31292 6.91835 3.96853 7.08009 3.64503C7.78735 2.2305 8.67582 1.37596 9.61505 1.19196V4.99569ZM9.61505 5.76507V9.61554H5.77316C5.80435 8.1105 6.01832 6.67388 6.39378 5.40938C7.39005 5.61557 8.48016 5.742 9.61505 5.76507ZM9.61505 10.3848V14.2352C8.54316 14.257 7.43932 14.3737 6.39382 14.5909C6.01832 13.3264 5.80435 11.8898 5.77316 10.3848H9.61505ZM9.61505 15.0046V18.8083C8.67582 18.6243 7.78735 17.7698 7.08009 16.3553C6.91832 16.0317 6.77059 15.6873 6.63724 15.3253C7.56909 15.1372 8.58312 15.0265 9.61505 15.0046ZM10.3843 15.0046C11.4138 15.0264 12.4237 15.1363 13.3621 15.3253C13.2287 15.6873 13.081 16.0317 12.9192 16.3553C12.212 17.7698 11.3235 18.6243 10.3843 18.8083V15.0046ZM10.3843 14.2352V10.3848H14.2262C14.195 11.8898 13.981 13.3264 13.6055 14.5909C12.6151 14.3852 11.5177 14.2583 10.3843 14.2352ZM10.3843 9.61554V5.76507C11.5319 5.74173 12.6179 5.6135 13.6055 5.40938C13.981 6.67384 14.195 8.1105 14.2262 9.61554H10.3843ZM5.88189 4.50284C5.16074 4.32073 4.41801 4.0628 3.75032 3.74007C4.84212 2.65103 6.19412 1.87296 7.66189 1.4698C6.84974 2.2845 6.27039 3.4198 5.88189 4.50284ZM5.88189 15.4975C6.27024 16.5802 6.84966 17.7158 7.66189 18.5305C6.19412 18.1273 4.84212 17.3492 3.75032 16.2602C4.41901 15.9368 5.16209 15.6801 5.88189 15.4975ZM14.1174 15.4975C14.8066 15.6697 15.5819 15.9374 16.249 16.2602C15.1572 17.3492 13.8052 18.1273 12.3375 18.5305C13.1496 17.7157 13.7291 16.5802 14.1174 15.4975ZM14.9955 9.61554C14.9643 8.05523 14.7435 6.55992 14.3552 5.23465C15.1979 5.0158 16.0419 4.71392 16.7896 4.3305C18.0357 5.82127 18.7535 7.67515 18.8375 9.61557H14.9955V9.61554Z" fill="white"/>
</g>
<defs>
<clipPath id="clip0_1987_3359">
<rect width="20" height="20" fill="white"/>
</clipPath>
</defs>
</svg>
