<svg width="62" height="30" viewBox="0 0 62 30" fill="none" xmlns="http://www.w3.org/2000/svg">
<path d="M15.8037 13.0073C15.8037 14.6269 15.1963 15.8796 13.9816 16.7653C12.7669 17.651 11.0799 18.0939 8.92041 18.0939H0V0.265714H8.16122C10.3376 0.265714 11.9824 0.645306 13.0959 1.40449C14.2178 2.15524 14.7788 3.26871 14.7788 4.7449C14.7788 5.75714 14.4962 6.61333 13.931 7.31347C13.3743 8.00517 12.5223 8.47333 11.3751 8.71796C12.8176 8.88667 13.9141 9.34218 14.6649 10.0845C15.4241 10.8184 15.8037 11.7927 15.8037 13.0073ZM11.0208 5.25102C11.0208 4.44966 10.7635 3.88027 10.249 3.54286C9.74286 3.20544 8.98789 3.03673 7.98408 3.03673H3.73265V7.45265H8.00939C9.06381 7.45265 9.82721 7.27129 10.2996 6.90857C10.7804 6.53742 11.0208 5.9849 11.0208 5.25102ZM12.0584 12.7163C12.0584 11.0461 10.8605 10.211 8.4649 10.211H3.73265V15.3229H8.60408C9.8019 15.3229 10.675 15.1078 11.2233 14.6776C11.78 14.2389 12.0584 13.5852 12.0584 12.7163Z" fill="#022759"/>
<path d="M22.4592 11.3245V18.0939H18.7265V0.265714H27.6343C29.76 0.265714 31.4007 0.725442 32.5563 1.6449C33.712 2.55592 34.2898 3.86762 34.2898 5.58C34.2898 6.82844 33.9355 7.90816 33.2269 8.81918C32.5184 9.72177 31.561 10.3165 30.3547 10.6033L35.1755 18.0939H30.9747L26.8371 11.3245H22.4592ZM30.5318 5.73184C30.5318 4.87986 30.2577 4.23878 29.7094 3.80857C29.1611 3.37837 28.3386 3.16327 27.242 3.16327H22.4592V8.42694H27.3433C28.3893 8.42694 29.1822 8.19075 29.722 7.71837C30.2619 7.24599 30.5318 6.58381 30.5318 5.73184Z" fill="#022759"/>
<path d="M41.1857 0.265714V18.0939H37.4531V0.265714H41.1857Z" fill="#022759"/>
<path d="M62 9.09755C62 10.9533 61.6246 12.5771 60.8739 13.969C60.1316 15.3524 59.0814 16.4279 57.7233 17.1955C56.3736 17.9631 54.7878 18.3469 52.9657 18.3469C51.1015 18.3469 49.4988 17.9758 48.1576 17.2335C46.8163 16.4827 45.7872 15.4156 45.0702 14.0322C44.3532 12.6488 43.9947 11.0039 43.9947 9.09755C43.9947 7.19116 44.349 5.55891 45.0576 4.20082C45.7746 2.84272 46.8037 1.80517 48.1449 1.08816C49.4946 0.362721 51.1099 0 52.991 0C54.8805 0 56.4959 0.366939 57.8371 1.10082C59.1784 1.82626 60.2075 2.86803 60.9245 4.22612C61.6415 5.58422 62 7.20803 62 9.09755ZM58.1914 9.09755C58.1914 7.17429 57.7359 5.66857 56.8249 4.58041C55.9139 3.48381 54.6359 2.93551 52.991 2.93551C51.3208 2.93551 50.0302 3.47959 49.1192 4.56776C48.2082 5.64748 47.7527 7.15742 47.7527 9.09755C47.7527 10.3966 47.9635 11.5185 48.3853 12.4633C48.8071 13.408 49.406 14.1377 50.182 14.6522C50.9665 15.1584 51.8944 15.4114 52.9657 15.4114C54.6359 15.4114 55.9223 14.8631 56.8249 13.7665C57.7359 12.6699 58.1914 11.1136 58.1914 9.09755Z" fill="#022759"/>
<rect y="24.1445" width="32.7054" height="1.59539" fill="#23ABD5"/>
<path d="M34.9629 27.9424V22.7255H35.8882V24.8234H38.0021V22.7255H38.9274V27.9424H38.0021V25.6291H35.8882V27.9424H34.9629ZM40.2523 27.9424V22.7255H43.3952V23.5072H41.1776V24.8394H43.0522V25.6211H41.1776V27.1606H43.4749V27.9424H40.2523ZM45.6134 25.1664L45.43 25.8046H46.7621L46.5786 25.1664C46.4936 24.8899 46.4111 24.6054 46.3314 24.3129C46.2569 24.0204 46.1825 23.7306 46.108 23.4434H46.0761C46.007 23.7359 45.9325 24.0284 45.8527 24.3209C45.7783 24.608 45.6985 24.8899 45.6134 25.1664ZM43.8665 27.9424L45.5656 22.7255H46.6504L48.3495 27.9424H47.3763L46.9695 26.5305H45.2146L44.8078 27.9424H43.8665ZM48.9926 27.9424V22.7255H49.9179V27.1606H52.0877V27.9424H48.9926ZM53.0914 27.9424V23.5072H51.5838V22.7255H55.5244V23.5072H54.0168V27.9424H53.0914ZM56.3931 27.9424V22.7255H57.3184V24.8234H59.4323V22.7255H60.3576V27.9424H59.4323V25.6291H57.3184V27.9424H56.3931Z" fill="#022759"/>
<path d="M37.4642 0.26573V3.51953L41.179 0.265625L37.4642 0.26573Z" fill="#23ABD5"/>
</svg>
