<svg width="32" height="32" viewBox="0 0 32 32" fill="none" xmlns="http://www.w3.org/2000/svg">
<path d="M16 1C13.0333 1 10.1332 1.87973 7.66645 3.52796C5.19972 5.17618 3.27713 7.51886 2.14181 10.2597C1.0065 13.0006 0.709449 16.0166 1.28823 18.9264C1.86701 21.8361 3.29562 24.5088 5.3934 26.6066C7.49119 28.7044 10.1639 30.133 13.0737 30.7118C15.9834 31.2906 18.9994 30.9935 21.7403 29.8582C24.4811 28.7229 26.8238 26.8003 28.4721 24.3336C30.1203 21.8668 31 18.9667 31 16C31 12.0218 29.4197 8.20644 26.6066 5.3934C23.7936 2.58035 19.9783 1 16 1ZM20.5107 17.5107L16.9857 21.0464C16.8856 21.1457 16.7669 21.2243 16.6363 21.2776C16.5058 21.3309 16.366 21.358 16.225 21.3571C16.084 21.358 15.9442 21.3309 15.8137 21.2776C15.6831 21.2243 15.5644 21.1457 15.4643 21.0464C15.3639 20.9468 15.2842 20.8283 15.2298 20.6978C15.1754 20.5672 15.1474 20.4272 15.1474 20.2857C15.1474 20.1443 15.1754 20.0042 15.2298 19.8737C15.2842 19.7431 15.3639 19.6246 15.4643 19.525L17.9179 17.0714H11.9393C11.6551 17.0714 11.3826 16.9585 11.1817 16.7576C10.9807 16.5567 10.8679 16.2842 10.8679 16C10.8679 15.7158 10.9807 15.4433 11.1817 15.2424C11.3826 15.0415 11.6551 14.9286 11.9393 14.9286H17.9179L15.4643 12.475C15.2625 12.2732 15.1492 11.9996 15.1492 11.7143C15.1492 11.429 15.2625 11.1553 15.4643 10.9536C15.666 10.7518 15.9397 10.6385 16.225 10.6385C16.5103 10.6385 16.784 10.7518 16.9857 10.9536L20.5107 14.4893C20.9098 14.8908 21.1338 15.4339 21.1338 16C21.1338 16.5661 20.9098 17.1092 20.5107 17.5107Z" fill="white"/>
</svg>
