<svg width="20" height="20" viewBox="0 0 20 20" fill="none" xmlns="http://www.w3.org/2000/svg">
<path d="M18.7961 2.89715C18.0185 2.11951 16.9846 1.69124 15.8848 1.69124C14.7854 1.69124 13.7518 2.11924 12.9743 2.89641C12.9741 2.89664 12.9737 2.89688 12.9735 2.89711L7.13019 8.74048L4.2172 11.6535C3.3003 12.5704 3.3003 14.0623 4.2172 14.9792C4.66136 15.4234 5.25189 15.668 5.88005 15.668C6.5082 15.668 7.09873 15.4234 7.5429 14.9792L15.727 6.79502C15.9559 6.56614 15.9559 6.19507 15.727 5.96619C15.4982 5.73731 15.1271 5.73731 14.8982 5.96619L6.71407 14.1503C6.49129 14.3731 6.19508 14.4958 5.88005 14.4958C5.56501 14.4958 5.26881 14.3731 5.04602 14.1503C4.82324 13.9276 4.70055 13.6313 4.70055 13.3163C4.70055 13.0013 4.82324 12.705 5.04602 12.4823L7.95901 9.56926L13.8018 3.72649C13.802 3.72629 13.8022 3.72614 13.8024 3.72594C14.3586 3.16972 15.0981 2.86335 15.8848 2.86335C16.6715 2.86335 17.4111 3.16968 17.9673 3.72594C19.1154 4.87406 19.1155 6.74216 17.9676 7.89047C17.9675 7.89059 17.9674 7.89071 17.9673 7.89082L9.21091 16.6472C7.37427 18.4838 4.38579 18.4838 2.54915 16.6472C0.712509 14.8105 0.712509 11.8221 2.54915 9.98542L10.7333 1.80127C10.9622 1.57239 10.9622 1.20132 10.7333 0.972443C10.5045 0.743561 10.1334 0.743561 9.90451 0.972443L1.72032 9.15663C-0.573339 11.4503 -0.573339 15.1824 1.72032 17.476C2.83144 18.5872 4.3087 19.1991 5.88001 19.1991C7.45135 19.1991 8.92861 18.5872 10.0397 17.476L18.7955 8.72024C18.7957 8.72004 18.7959 8.71988 18.7961 8.71969C20.4014 7.11439 20.4014 4.50241 18.7961 2.89715Z" fill="#022759"/>
</svg>
