<svg width="17" height="17" viewBox="0 0 17 17" fill="none" xmlns="http://www.w3.org/2000/svg">
<g clip-path="url(#clip0_432_1022)">
<path d="M15.9195 3.8639L12.8283 0.77255C12.7414 0.685561 12.6234 0.636719 12.5005 0.636719H5.39037C4.62333 0.636719 3.99929 1.26076 3.99929 2.0278V8.14354C1.91558 8.37495 0.289745 10.1465 0.289745 12.2909C0.289745 14.592 2.16186 16.4641 4.46298 16.4641H14.6642C15.4313 16.4641 16.0553 15.8401 16.0553 15.073V4.19179C16.0553 4.06879 16.0065 3.95089 15.9195 3.8639ZM12.964 2.21986L14.4721 3.72801H12.964V2.21986ZM1.21713 12.2909C1.21713 10.5011 2.67322 9.04502 4.46298 9.04502C6.25275 9.04502 7.70884 10.5011 7.70884 12.2909C7.70884 14.0806 6.25275 15.5367 4.46298 15.5367C2.67322 15.5367 1.21713 14.0806 1.21713 12.2909ZM14.6642 15.5367H7.08282C7.91632 14.8627 8.48592 13.8749 8.61035 12.7546H13.4277C13.6838 12.7546 13.8914 12.547 13.8914 12.2909C13.8914 12.0348 13.6838 11.8272 13.4277 11.8272H8.61032C8.5347 11.1465 8.29488 10.5147 7.93122 9.97241H13.4277C13.6838 9.97241 13.8914 9.7648 13.8914 9.50871C13.8914 9.25263 13.6838 9.04502 13.4277 9.04502H7.08282C6.47937 8.55703 5.73777 8.23362 4.92668 8.14354V2.0278C4.92668 1.77212 5.13469 1.56411 5.39037 1.56411H12.0366V4.1917C12.0366 4.44778 12.2442 4.65539 12.5003 4.65539H15.1279V15.073C15.1279 15.3287 14.9199 15.5367 14.6642 15.5367Z" fill="#022759"/>
<path d="M13.4277 6.26367H6.62688C6.3708 6.26367 6.16319 6.47128 6.16319 6.72737C6.16319 6.98345 6.3708 7.19106 6.62688 7.19106H13.4277C13.6838 7.19106 13.8914 6.98345 13.8914 6.72737C13.8914 6.47128 13.6838 6.26367 13.4277 6.26367Z" fill="#022759"/>
<path d="M5.6995 12.7548C5.95558 12.7548 6.16319 12.5472 6.16319 12.2911C6.16319 12.035 5.95558 11.8274 5.6995 11.8274H4.92668V10.4363C4.92668 10.1803 4.71907 9.97266 4.46298 9.97266C4.2069 9.97266 3.99929 10.1803 3.99929 10.4363V12.2911C3.99929 12.5472 4.2069 12.7548 4.46298 12.7548H5.6995Z" fill="#022759"/>
</g>
<defs>
<clipPath id="clip0_432_1022">
<rect width="15.8274" height="15.8274" fill="white" transform="translate(0.258831 0.636719)"/>
</clipPath>
</defs>
</svg>
