<svg width="20" height="20" viewBox="0 0 20 20" fill="none" xmlns="http://www.w3.org/2000/svg">
<path d="M9.99978 0.384766C4.68455 0.384766 0.384399 4.69934 0.384399 10.0002C0.384399 15.2887 4.66901 19.6155 9.99978 19.6155C15.3132 19.6155 19.6152 15.3023 19.6152 10.0002C19.6152 4.70277 15.3176 0.384766 9.99978 0.384766ZM16.7897 15.6698C16.0371 15.283 15.1841 14.9808 14.3552 14.7657C14.7437 13.4404 14.9644 11.945 14.9956 10.3848H18.8376C18.7536 12.3252 18.0358 14.179 16.7897 15.6698ZM3.20986 15.6698C1.96378 14.179 1.24598 12.3252 1.16198 10.3848H5.00394C5.03517 11.945 5.2559 13.4404 5.64428 14.7657C4.81463 14.9813 3.97601 15.2776 3.20986 15.6698ZM3.20986 4.33046C3.97478 4.72234 4.81586 5.019 5.64428 5.23465C5.2559 6.55992 5.03517 8.05523 5.00394 9.61553H1.16198C1.24598 7.67511 1.96378 5.82127 3.20986 4.33046ZM14.1176 4.50284C13.7281 3.41715 13.1485 2.2833 12.3376 1.4698C13.8053 1.87296 15.1573 2.65103 16.2491 3.74007C15.5817 4.06215 14.8163 4.32815 14.1176 4.50284ZM10.3844 4.99569V1.19196C11.3236 1.376 12.2121 2.2305 12.9193 3.64504C13.0811 3.96857 13.2288 4.31296 13.3622 4.67496C12.3819 4.87169 11.3762 4.97469 10.3844 4.99569ZM9.61517 4.99569C8.61498 4.97453 7.60655 4.86984 6.63736 4.67496C6.77071 4.31292 6.91848 3.96853 7.08021 3.64504C7.78748 2.2305 8.67594 1.37596 9.61517 1.19196V4.99569ZM9.61517 5.76507V9.61553H5.77328C5.80448 8.1105 6.01844 6.67388 6.3939 5.40938C7.39017 5.61557 8.48028 5.742 9.61517 5.76507ZM9.61517 10.3848V14.2352C8.54328 14.257 7.43944 14.3737 6.39394 14.5909C6.01844 13.3264 5.80448 11.8898 5.77328 10.3848H9.61517ZM9.61517 15.0046V18.8083C8.67594 18.6243 7.78748 17.7698 7.08021 16.3553C6.91844 16.0317 6.77071 15.6873 6.63736 15.3253C7.56921 15.1372 8.58325 15.0265 9.61517 15.0046ZM10.3844 15.0046C11.4139 15.0264 12.4239 15.1363 13.3622 15.3253C13.2288 15.6873 13.0811 16.0317 12.9193 16.3553C12.2121 17.7698 11.3236 18.6243 10.3844 18.8083V15.0046ZM10.3844 14.2352V10.3848H14.2263C14.1951 11.8898 13.9812 13.3264 13.6056 14.5909C12.6152 14.3852 11.5178 14.2583 10.3844 14.2352ZM10.3844 9.61553V5.76507C11.5321 5.74173 12.618 5.6135 13.6057 5.40938C13.9812 6.67384 14.1951 8.1105 14.2263 9.61553H10.3844ZM5.88202 4.50284C5.16086 4.32073 4.41813 4.0628 3.75044 3.74007C4.84225 2.65103 6.19425 1.87296 7.66201 1.4698C6.84986 2.2845 6.27051 3.4198 5.88202 4.50284ZM5.88202 15.4975C6.27036 16.5802 6.84978 17.7158 7.66201 18.5305C6.19425 18.1273 4.84225 17.3492 3.75044 16.2602C4.41913 15.9368 5.16221 15.6801 5.88202 15.4975ZM14.1175 15.4975C14.8067 15.6697 15.5821 15.9374 16.2491 16.2602C15.1573 17.3492 13.8053 18.1273 12.3376 18.5305C13.1497 17.7157 13.7292 16.5802 14.1175 15.4975ZM14.9956 9.61553C14.9644 8.05523 14.7437 6.55992 14.3553 5.23465C15.198 5.0158 16.042 4.71392 16.7897 4.3305C18.0358 5.82127 18.7536 7.67515 18.8376 9.61557H14.9956V9.61553Z" fill="#022759"/>
</svg>
