<svg width="30" height="30" viewBox="0 0 30 30" fill="none" xmlns="http://www.w3.org/2000/svg">
<path d="M15 0C12.0333 0 9.13318 0.879735 6.66644 2.52796C4.19971 4.17618 2.27712 6.51886 1.14181 9.25975C0.00649162 12.0006 -0.290558 15.0166 0.28822 17.9264C0.866998 20.8361 2.29561 23.5088 4.3934 25.6066C6.49118 27.7044 9.16393 29.133 12.0736 29.7118C14.9834 30.2906 17.9994 29.9935 20.7402 28.8582C23.4811 27.7229 25.8238 25.8003 27.472 23.3336C29.1203 20.8668 30 17.9667 30 15C30 11.0218 28.4196 7.20644 25.6066 4.3934C22.7936 1.58035 18.9782 0 15 0ZM19.5107 16.5107L15.9857 20.0464C15.8856 20.1457 15.7669 20.2243 15.6363 20.2776C15.5058 20.3309 15.366 20.358 15.225 20.3571C15.084 20.358 14.9442 20.3309 14.8137 20.2776C14.6831 20.2243 14.5644 20.1457 14.4643 20.0464C14.3639 19.9468 14.2842 19.8283 14.2298 19.6978C14.1754 19.5672 14.1474 19.4272 14.1474 19.2857C14.1474 19.1443 14.1754 19.0042 14.2298 18.8737C14.2842 18.7431 14.3639 18.6246 14.4643 18.525L16.9179 16.0714H10.9393C10.6551 16.0714 10.3826 15.9585 10.1817 15.7576C9.98074 15.5567 9.86786 15.2842 9.86786 15C9.86786 14.7158 9.98074 14.4433 10.1817 14.2424C10.3826 14.0415 10.6551 13.9286 10.9393 13.9286H16.9179L14.4643 11.475C14.2625 11.2732 14.1492 10.9996 14.1492 10.7143C14.1492 10.429 14.2625 10.1553 14.4643 9.95357C14.666 9.75182 14.9397 9.63847 15.225 9.63847C15.5103 9.63847 15.784 9.75182 15.9857 9.95357L19.5107 13.4893C19.9098 13.8908 20.1338 14.4339 20.1338 15C20.1338 15.5661 19.9098 16.1092 19.5107 16.5107Z" fill="#00285D"/>
</svg>
