<svg width="12" height="14" viewBox="0 0 12 14" fill="none" xmlns="http://www.w3.org/2000/svg">
<path d="M7.75 10.875C8.0261 10.875 8.25 10.6511 8.25 10.375V5.375C8.25 5.0989 8.0261 4.875 7.75 4.875C7.4739 4.875 7.25 5.0989 7.25 5.375V10.375C7.25 10.6511 7.4739 10.875 7.75 10.875Z" fill="#607A9C"/>
<path d="M4.25 10.875C4.5261 10.875 4.75 10.6511 4.75 10.375V5.375C4.75 5.0989 4.5261 4.875 4.25 4.875C3.9739 4.875 3.75 5.0989 3.75 5.375V10.375C3.75 10.6511 3.9739 10.875 4.25 10.875Z" fill="#607A9C"/>
<path d="M8 1.125C8.2761 1.125 8.5 0.9011 8.5 0.625C8.5 0.3489 8.2761 0.125 8 0.125H4C3.7239 0.125 3.5 0.3489 3.5 0.625C3.5 0.9011 3.7239 1.125 4 1.125H8Z" fill="#607A9C"/>
<path d="M0.5 1.625C0.2239 1.625 0 1.8489 0 2.125C0 2.4011 0.2239 2.625 0.5 2.625H1V11.825C1 12.955 1.92 13.875 3.05 13.875H8.95C10.08 13.875 11 12.955 11 11.825V2.625H11.5C11.7761 2.625 12 2.4011 12 2.125C12 1.8489 11.7761 1.625 11.5 1.625H10.5H1.5H0.5ZM10 2.625V11.825C10 12.405 9.53 12.875 8.95 12.875H3.05C2.47 12.875 2 12.405 2 11.825V2.625H10Z" fill="#607A9C"/>
</svg>
