<svg width="16" height="16" viewBox="0 0 16 16" fill="none" xmlns="http://www.w3.org/2000/svg">
<path fill-rule="evenodd" clip-rule="evenodd" d="M1.00049 13.5869C0.609989 13.9775 0.610049 14.6106 1.00061 15.0011C1.39117 15.3916 2.02433 15.3916 2.41482 15.001L8.00006 9.41476L13.5858 15.0005C13.9763 15.391 14.6095 15.391 15 15.0005C15.3905 14.61 15.3905 13.9768 15 13.5863L9.41416 8.00046L14.9996 2.41408C15.39 2.02352 15.39 1.39036 14.9994 0.999869C14.6089 0.609369 13.9757 0.609429 13.5852 0.999989L7.99986 6.58626L2.41414 1.00047C2.02362 0.609949 1.39045 0.609949 0.999929 1.00047C0.609399 1.391 0.609399 2.02416 0.999929 2.41469L6.58586 8.00056L1.00049 13.5869Z" fill="#00285D"/>
</svg>
