<svg width="14" height="14" viewBox="0 0 14 14" fill="none" xmlns="http://www.w3.org/2000/svg">
<path fill-rule="evenodd" clip-rule="evenodd" d="M1.07354 11.706C0.735923 12.0437 0.735975 12.5911 1.07365 12.9287C1.41132 13.2663 1.95874 13.2663 2.29635 12.9286L7.12525 8.09887L11.9546 12.9282C12.2922 13.2658 12.8396 13.2658 13.1773 12.9282C13.5149 12.5906 13.5149 12.0431 13.1773 11.7055L8.34786 6.87609L13.1769 2.0462C13.5144 1.70853 13.5144 1.16111 13.1767 0.823495C12.8391 0.485875 12.2917 0.485927 11.954 0.823599L7.12508 5.6534L2.29576 0.824014C1.95812 0.486377 1.4107 0.486377 1.07306 0.824014C0.735413 1.16166 0.735413 1.70908 1.07306 2.04672L5.90256 6.87618L1.07354 11.706Z" fill="#022759"/>
</svg>
