<svg width="15" height="16" viewBox="0 0 15 16" fill="none" xmlns="http://www.w3.org/2000/svg">
<path d="M2.82033 15.9012H9.42033C10.5122 15.9012 11.4003 15.013 11.4003 13.9212V4.68117C11.4003 3.58933 10.5122 2.70117 9.42033 2.70117H2.82033C1.72849 2.70117 0.840332 3.58933 0.840332 4.68117V13.9212C0.840332 15.013 1.72849 15.9012 2.82033 15.9012ZM2.16033 4.68117C2.16033 4.31733 2.45617 4.02117 2.82033 4.02117H9.42033C9.78449 4.02117 10.0803 4.31733 10.0803 4.68117V13.9212C10.0803 14.285 9.78449 14.5812 9.42033 14.5812H2.82033C2.45617 14.5812 2.16033 14.285 2.16033 13.9212V4.68117Z" fill="#022759"/>
<path d="M14.0403 8.64055V2.04055C14.0403 0.948709 13.1521 0.0605469 12.0603 0.0605469H5.46029C5.09581 0.0605469 4.80029 0.356065 4.80029 0.720547C4.80029 1.08503 5.09581 1.38055 5.46029 1.38055H12.0603C12.4245 1.38055 12.7203 1.67671 12.7203 2.04055V8.64055C12.7203 9.00503 13.0158 9.30055 13.3803 9.30055C13.7448 9.30055 14.0403 9.00503 14.0403 8.64055Z" fill="#022759"/>
</svg>
