<svg width="14" height="14" viewBox="0 0 14 14" fill="none" xmlns="http://www.w3.org/2000/svg">
<path fill-rule="evenodd" clip-rule="evenodd" d="M10.8767 2.12766L6.20083 6.80355C5.92634 7.07803 5.92594 7.52418 6.20087 7.79911C6.47524 8.07348 6.92153 8.07406 7.19643 7.79915L11.8706 3.125V4.68816C11.8706 5.0406 12.1571 5.32766 12.5106 5.32766C12.8633 5.32766 13.1506 5.04135 13.1506 4.68816V1.48715C13.1506 1.31102 13.079 1.15121 12.9633 1.03541C12.8474 0.919402 12.6876 0.847656 12.5111 0.847656H9.31008C8.95764 0.847656 8.67059 1.13419 8.67059 1.48766C8.67059 1.8404 8.9569 2.12766 9.31008 2.12766H10.8767ZM13.1506 8.52766V5.48528V12.0524C13.1506 12.9334 12.5158 13.6477 11.7319 13.6477H1.76932C0.985773 13.6477 0.350586 12.932 0.350586 12.0524V2.4429C0.350586 1.56187 0.98534 0.847656 1.76932 0.847656H8.60122H5.47059C5.82405 0.847656 6.11059 1.13419 6.11059 1.48766C6.11059 1.84112 5.82405 2.12766 5.47059 2.12766H1.99503C1.79143 2.12766 1.63059 2.31881 1.63059 2.55462V11.9407C1.63059 12.1722 1.79375 12.3677 1.99503 12.3677H11.5061C11.7097 12.3677 11.8706 12.1765 11.8706 11.9407V8.52766C11.8706 8.17419 12.1571 7.88766 12.5106 7.88766C12.864 7.88766 13.1506 8.17419 13.1506 8.52766Z" fill="#022759"/>
</svg>
