<svg width="15" height="15" viewBox="0 0 15 15" fill="none" xmlns="http://www.w3.org/2000/svg">
<path d="M14.4879 13.6317L10.926 9.92707C11.8418 8.83836 12.3436 7.46855 12.3436 6.04252C12.3436 2.71073 9.63285 0 6.30106 0C2.96927 0 0.258545 2.71073 0.258545 6.04252C0.258545 9.37431 2.96927 12.085 6.30106 12.085C7.55186 12.085 8.74381 11.7078 9.7629 10.9916L13.3519 14.7243C13.5019 14.8801 13.7037 14.966 13.9199 14.966C14.1245 14.966 14.3187 14.888 14.4661 14.7461C14.7792 14.4448 14.7892 13.9451 14.4879 13.6317ZM6.30106 1.57631C8.76378 1.57631 10.7673 3.5798 10.7673 6.04252C10.7673 8.50524 8.76378 10.5087 6.30106 10.5087C3.83834 10.5087 1.83485 8.50524 1.83485 6.04252C1.83485 3.5798 3.83834 1.57631 6.30106 1.57631Z" fill="#7A889C"/>
</svg>
