<svg width="22" height="22" viewBox="0 0 22 22" fill="none" xmlns="http://www.w3.org/2000/svg">
<path fill-rule="evenodd" clip-rule="evenodd" d="M10.2504 5.5C10.2504 5.086 10.5864 4.75 11.0004 4.75C11.4144 4.75 11.7504 5.086 11.7504 5.5V16.5C11.7504 16.914 11.4144 17.25 11.0004 17.25C10.5864 17.25 10.2504 16.914 10.2504 16.5V5.5Z" fill="#022759"/>
<path fill-rule="evenodd" clip-rule="evenodd" d="M5.50049 11.75C5.08649 11.75 4.75049 11.414 4.75049 11C4.75049 10.586 5.08649 10.25 5.50049 10.25H16.5005C16.9145 10.25 17.2505 10.586 17.2505 11C17.2505 11.414 16.9145 11.75 16.5005 11.75H5.50049Z" fill="#022759"/>
<path fill-rule="evenodd" clip-rule="evenodd" d="M21.7505 5V17C21.7505 18.26 21.2505 19.468 20.3595 20.359C19.4685 21.25 18.2605 21.75 17.0005 21.75H5.00049C3.74049 21.75 2.53249 21.25 1.64149 20.359C0.750488 19.468 0.250488 18.26 0.250488 17V5C0.250488 3.74 0.750488 2.532 1.64149 1.641C2.53249 0.75 3.74049 0.25 5.00049 0.25H17.0005C18.2605 0.25 19.4685 0.75 20.3595 1.641C21.2505 2.532 21.7505 3.74 21.7505 5ZM20.2505 5C20.2505 4.138 19.9085 3.311 19.2985 2.702C18.6895 2.092 17.8625 1.75 17.0005 1.75H5.00049C4.13849 1.75 3.31149 2.092 2.70249 2.702C2.09249 3.311 1.75049 4.138 1.75049 5V17C1.75049 17.862 2.09249 18.689 2.70249 19.298C3.31149 19.908 4.13849 20.25 5.00049 20.25H17.0005C17.8625 20.25 18.6895 19.908 19.2985 19.298C19.9085 18.689 20.2505 17.862 20.2505 17V5Z" fill="#022759"/>
</svg>
