<svg width="24" height="24" viewBox="0 0 24 24" fill="none" xmlns="http://www.w3.org/2000/svg">
<g clip-path="url(#clip0_632_485)">
<path d="M19.3109 5.75064C19.4887 5.50684 19.5939 5.20695 19.5939 4.88281C19.5939 4.06863 18.9315 3.40625 18.1174 3.40625C17.7932 3.40625 17.4933 3.51151 17.2495 3.68926C15.7143 2.58338 13.9056 2 12 2C10.1306 2 8.33805 2.56784 6.81596 3.64211C6.65734 3.75409 6.61951 3.97343 6.73148 4.13209C6.84346 4.29071 7.06283 4.32854 7.22146 4.21657C8.23818 3.49896 9.38613 3.02677 10.5971 2.82107C10.4561 3.00016 10.3145 3.2157 10.1748 3.4753C9.74828 4.26768 9.39629 5.3589 9.15094 6.64491C8.50547 6.69132 7.97373 7.15412 7.82375 7.76562H4.35728C4.56161 7.28332 4.81234 6.81901 5.10829 6.37861C5.21657 6.21745 5.17368 5.99902 5.01252 5.89074C4.85136 5.78243 4.63294 5.82532 4.52466 5.98647C3.5272 7.47091 3 9.20457 3 11C3 12.9049 3.58342 14.7141 4.68915 16.2495C4.51147 16.4933 4.40625 16.7931 4.40625 17.1172C4.40625 17.9314 5.06863 18.5938 5.88281 18.5938C6.20692 18.5938 6.50677 18.4885 6.75054 18.3108C8.28588 19.4166 10.0949 20 12 20C14.404 20 16.6641 19.0638 18.364 17.3639C20.0638 15.6641 21 13.404 21 11C21 9.0946 20.4167 7.28592 19.3109 5.75064ZM19.9015 13.5312H16.1526C16.0321 13.0403 15.6657 12.6453 15.1918 12.4845C15.2195 11.9961 15.2344 11.4984 15.2344 11C15.2344 10.1307 15.1923 9.28016 15.1111 8.46879H19.9059C20.1642 9.2772 20.2969 10.1276 20.2969 11C20.2969 11.8824 20.1579 12.7329 19.9015 13.5312ZM12 19.2969C11.411 19.2969 10.7736 18.4398 10.2951 17.0042C10.0269 16.1995 9.81936 15.2595 9.67934 14.2344H13.2846C13.3972 14.6933 13.7247 15.0687 14.154 15.247C13.6192 18.0414 12.697 19.2969 12 19.2969ZM5.88281 15.6406C5.64772 15.6406 5.42543 15.6961 5.22796 15.7943C4.87836 15.3021 4.58674 14.7799 4.35527 14.2344H8.97045C9.11655 15.3406 9.33828 16.3574 9.62801 17.2265C9.90659 18.0623 10.231 18.7161 10.5924 19.1788C9.3746 18.9722 8.22552 18.4965 7.20571 17.7721C7.30386 17.5746 7.35938 17.3523 7.35938 17.1172C7.35938 16.303 6.697 15.6406 5.88281 15.6406ZM9.46875 11C9.46875 10.5203 9.48281 10.0416 9.50918 9.57188C10.0884 9.472 10.553 9.03389 10.6916 8.46875H14.4046C14.4879 9.27706 14.5312 10.1281 14.5312 11C14.5312 11.4781 14.5173 11.9553 14.491 12.4238C13.9007 12.5156 13.4252 12.9583 13.2846 13.5312H9.59538C9.5121 12.723 9.46875 11.8719 9.46875 11ZM14.7186 14.6562C14.2921 14.6562 13.9452 14.3093 13.9452 13.8828C13.9452 13.4563 14.2921 13.1094 14.7186 13.1094C15.1451 13.1094 15.492 13.4563 15.492 13.8828C15.492 14.3093 15.1451 14.6562 14.7186 14.6562ZM14.372 4.77348C14.0934 3.93764 13.769 3.2838 13.4076 2.82114C14.6255 3.02769 15.7746 3.50335 16.7945 4.22792C16.6963 4.42543 16.6408 4.64772 16.6408 4.88281C16.6408 5.697 17.3032 6.35938 18.1174 6.35938C18.3525 6.35938 18.5747 6.30386 18.7722 6.20574C19.1218 6.69786 19.4134 7.22014 19.6448 7.76566H15.0296C14.8834 6.65936 14.6617 5.64264 14.372 4.77348ZM18.8908 4.88281C18.8908 5.30929 18.5438 5.65625 18.1174 5.65625C17.6909 5.65625 17.3439 5.30929 17.3439 4.88281C17.3439 4.45633 17.6909 4.10938 18.1174 4.10938C18.5438 4.10938 18.8908 4.45633 18.8908 4.88281ZM12 2.70312C12.589 2.70312 13.2264 3.5602 13.7049 4.9958C13.9731 5.8005 14.1806 6.74054 14.3207 7.76562H10.6916C10.581 7.31454 10.2627 6.9443 9.84418 6.76241C10.3786 3.96158 11.3017 2.70312 12 2.70312ZM9.25767 7.34379C9.68415 7.34379 10.0311 7.69074 10.0311 8.11722C10.0311 8.5437 9.68415 8.89066 9.25767 8.89066C8.83119 8.89066 8.48423 8.5437 8.48423 8.11722C8.48423 7.69074 8.83119 7.34379 9.25767 7.34379ZM7.82375 8.46879C7.94613 8.96776 8.32259 9.36784 8.80774 9.52344C8.78032 10.0092 8.76562 10.5042 8.76562 11C8.76562 11.8693 8.80774 12.7199 8.88892 13.5312H4.09431C3.83595 12.7227 3.70312 11.8723 3.70312 11C3.70312 10.1322 3.83689 9.28023 4.09642 8.46879H7.82375ZM5.10938 17.1172C5.10938 16.6907 5.45633 16.3438 5.88281 16.3438C6.30929 16.3438 6.65625 16.6907 6.65625 17.1172C6.65625 17.5437 6.30929 17.8906 5.88281 17.8906C5.45633 17.8906 5.10938 17.5437 5.10938 17.1172ZM13.404 19.1775C13.5437 18.9998 13.6841 18.7863 13.8227 18.5295C14.2505 17.7365 14.6036 16.6427 14.8495 15.3533C15.4841 15.2972 16.0045 14.8383 16.1526 14.2344H19.6404C18.5535 16.7921 16.2184 18.6957 13.404 19.1775Z" fill="white"/>
<path d="M5.81458 5.30664C5.90742 5.30664 5.99774 5.26937 6.06348 5.20363C6.12887 5.13824 6.16614 5.04754 6.16614 4.95508C6.16614 4.86262 6.12887 4.77227 6.06348 4.70652C5.99774 4.64113 5.90742 4.60352 5.81458 4.60352C5.72211 4.60352 5.63141 4.64113 5.56606 4.70652C5.50067 4.77227 5.46301 4.86262 5.46301 4.95508C5.46301 5.04754 5.50063 5.13824 5.56606 5.20363C5.63141 5.26937 5.72211 5.30664 5.81458 5.30664Z" fill="white"/>
</g>
<defs>
<clipPath id="clip0_632_485">
<rect width="18" height="18" fill="white" transform="translate(3 2)"/>
</clipPath>
</defs>
</svg>
