<svg width="19" height="16" viewBox="0 0 19 16" fill="none" xmlns="http://www.w3.org/2000/svg">
<path d="M4.63232 15.7871C3.58496 15.7871 2.97705 15.1938 2.97705 14.1685V7.18115L2.0249 7.98682C1.87109 8.11133 1.70264 8.22119 1.49756 8.22119C1.10205 8.22119 0.867676 7.93555 0.867676 7.63525C0.867676 7.4668 0.940918 7.29102 1.10205 7.15918L8.73389 0.750488C9.2832 0.289062 9.95703 0.289062 10.499 0.750488L14.3516 3.98779V2.50098C14.3516 2.17871 14.564 1.97363 14.8789 1.97363H15.6626C15.9849 1.97363 16.1899 2.17871 16.1899 2.50098V5.5332L18.1235 7.15918C18.2773 7.29102 18.3506 7.4375 18.3506 7.65723C18.3506 8.00879 18.0723 8.22119 17.728 8.22119C17.5229 8.22119 17.3545 8.11133 17.208 7.98682L16.1899 7.12988V14.1685C16.1899 15.1938 15.582 15.7871 14.542 15.7871H4.63232ZM11.7222 9.70068V14.6079H14.293C14.7544 14.6079 15.0107 14.3442 15.0107 13.8682V6.14111L9.87646 1.83447C9.71533 1.68799 9.51758 1.68799 9.35645 1.83447L4.15625 6.19238V13.8682C4.15625 14.3442 4.4126 14.6079 4.88135 14.6079H7.49609V9.70068C7.49609 9.36377 7.71582 9.14404 8.06006 9.14404H11.1655C11.5024 9.14404 11.7222 9.36377 11.7222 9.70068Z" fill="white"/>
</svg>
