<svg width="17" height="17" viewBox="0 0 17 17" fill="none" xmlns="http://www.w3.org/2000/svg">
<path d="M14.9674 4.06639H13.1935L12.2141 2.58813C11.8446 2.03378 11.1978 1.70117 10.5326 1.70117H6.46739C5.80217 1.70117 5.15543 2.03378 4.78587 2.58813L3.80652 4.06639H2.03261C0.905435 4.06639 0 4.97182 0 6.099V13.2686C0 14.3957 0.905435 15.3012 2.03261 15.3012H14.9674C16.0946 15.3012 17 14.3957 17 13.2686V6.099C17 4.97182 16.0946 4.06639 14.9674 4.06639ZM8.5 13.6381C5.96848 13.6381 3.91739 11.587 3.91739 9.05552C3.91739 6.524 5.96848 4.49139 8.5 4.49139C11.0315 4.49139 13.0826 6.54248 13.0826 9.074C13.0826 11.587 11.0315 13.6381 8.5 13.6381ZM14.7087 6.93052C14.6902 6.93052 14.6717 6.93052 14.6348 6.93052H13.8957C13.563 6.91204 13.3043 6.63487 13.3228 6.30226C13.3413 5.98813 13.5815 5.74791 13.8957 5.72943H14.6348C14.9674 5.71095 15.2446 5.96965 15.263 6.30226C15.2815 6.63487 15.0413 6.91204 14.7087 6.93052Z" fill="white"/>
<path d="M8.49922 6.52148C7.09487 6.52148 5.94922 7.66714 5.94922 9.07148C5.94922 10.4758 7.09487 11.603 8.49922 11.603C9.90357 11.603 11.0492 10.4574 11.0492 9.05301C11.0492 7.64866 9.90357 6.52148 8.49922 6.52148Z" fill="white"/>
</svg>
