<svg width="21" height="21" viewBox="0 0 21 21" fill="none" xmlns="http://www.w3.org/2000/svg">
<path d="M18.0003 16.251H3.00033C2.77931 16.251 2.56735 16.3388 2.41107 16.4951C2.25479 16.6513 2.16699 16.8633 2.16699 17.0843C2.16699 17.3053 2.25479 17.5173 2.41107 17.6736C2.56735 17.8298 2.77931 17.9176 3.00033 17.9176H18.0003C18.2213 17.9176 18.4333 17.8298 18.5896 17.6736C18.7459 17.5173 18.8337 17.3053 18.8337 17.0843C18.8337 16.8633 18.7459 16.6513 18.5896 16.4951C18.4333 16.3388 18.2213 16.251 18.0003 16.251Z" fill="#1A4075"/>
<path d="M10.5005 2.08301C10.2795 2.08301 10.0675 2.17081 9.91122 2.32709C9.75494 2.48337 9.66715 2.69533 9.66715 2.91634V11.7413L6.92548 8.99134C6.76856 8.83442 6.55573 8.74627 6.33381 8.74627C6.1119 8.74627 5.89907 8.83442 5.74215 8.99134C5.58523 9.14826 5.49707 9.36109 5.49707 9.58301C5.49707 9.80493 5.58523 10.0178 5.74215 10.1747L9.90881 14.3413C9.98628 14.4194 10.0784 14.4814 10.18 14.5238C10.2815 14.5661 10.3905 14.5878 10.5005 14.5878C10.6105 14.5878 10.7194 14.5661 10.821 14.5238C10.9225 14.4814 11.0147 14.4194 11.0921 14.3413L15.2588 10.1747C15.3365 10.097 15.3981 10.0047 15.4402 9.90322C15.4822 9.8017 15.5039 9.69289 15.5039 9.58301C15.5039 9.47313 15.4822 9.36432 15.4402 9.2628C15.3981 9.16128 15.3365 9.06904 15.2588 8.99134C15.1811 8.91364 15.0889 8.85201 14.9874 8.80996C14.8858 8.76791 14.777 8.74627 14.6671 8.74627C14.5573 8.74627 14.4485 8.76791 14.3469 8.80996C14.2454 8.85201 14.1532 8.91364 14.0755 8.99134L11.3338 11.7413V2.91634C11.3338 2.69533 11.246 2.48337 11.0897 2.32709C10.9335 2.17081 10.7215 2.08301 10.5005 2.08301Z" fill="#1A4075"/>
</svg>
