<svg width="46" height="33" viewBox="0 0 46 33" fill="none" xmlns="http://www.w3.org/2000/svg">
<rect y="0.222656" width="45.3333" height="32" rx="4" fill="white" fill-opacity="0.1"/>
<path fill-rule="evenodd" clip-rule="evenodd" d="M22.9052 22.6624C21.3265 23.9931 19.2786 24.7964 17.0409 24.7964C12.0478 24.7964 8 20.7968 8 15.863C8 10.9293 12.0478 6.92969 17.0409 6.92969C19.2786 6.92969 21.3265 7.73298 22.9052 9.06364C24.4839 7.73298 26.5317 6.92969 28.7694 6.92969C33.7626 6.92969 37.8104 10.9293 37.8104 15.863C37.8104 20.7968 33.7626 24.7964 28.7694 24.7964C26.5317 24.7964 24.4839 23.9931 22.9052 22.6624Z" fill="#ED0006"/>
<path fill-rule="evenodd" clip-rule="evenodd" d="M22.9053 22.6623C24.8492 21.0238 26.0818 18.5856 26.0818 15.863C26.0818 13.1404 24.8492 10.7023 22.9053 9.06374C24.484 7.73302 26.5319 6.92969 28.7697 6.92969C33.7628 6.92969 37.8106 10.9293 37.8106 15.863C37.8106 20.7968 33.7628 24.7964 28.7697 24.7964C26.5319 24.7964 24.484 23.993 22.9053 22.6623Z" fill="#F9A000"/>
<path fill-rule="evenodd" clip-rule="evenodd" d="M22.9052 22.6622C24.8492 21.0237 26.0818 18.5855 26.0818 15.8629C26.0818 13.1402 24.8492 10.702 22.9052 9.06348C20.9612 10.702 19.7285 13.1402 19.7285 15.8629C19.7285 18.5855 20.9612 21.0237 22.9052 22.6622Z" fill="#FF5E00"/>
</svg>
