<svg width="21" height="21" viewBox="0 0 21 21" fill="none" xmlns="http://www.w3.org/2000/svg">
<g clip-path="url(#clip0_345_10243)">
<path d="M10.5 4.45605C6.67879 4.45605 3.21351 6.54668 0.65649 9.9424C0.447837 10.2206 0.447837 10.6093 0.65649 10.8875C3.21351 14.2873 6.67879 16.3779 10.5 16.3779C14.3212 16.3779 17.7865 14.2873 20.3435 10.8916C20.5522 10.6134 20.5522 10.2247 20.3435 9.94649C17.7865 6.54668 14.3212 4.45605 10.5 4.45605ZM10.7741 14.6146C8.23755 14.7741 6.14284 12.6835 6.30239 10.1429C6.43331 8.04816 8.13118 6.3503 10.2259 6.21938C12.7625 6.05982 14.8572 8.15044 14.6976 10.6911C14.5626 12.7817 12.8647 14.4796 10.7741 14.6146ZM10.6473 12.6753C9.28081 12.7613 8.15163 11.6362 8.24164 10.2697C8.31119 9.14052 9.22763 8.22817 10.3568 8.15453C11.7233 8.06861 12.8525 9.1937 12.7625 10.5602C12.6888 11.6934 11.7724 12.6058 10.6473 12.6753Z" fill="#1A4075"/>
</g>
<defs>
<clipPath id="clip0_345_10243">
<rect width="20" height="20" fill="white" transform="translate(0.5 0.416992)"/>
</clipPath>
</defs>
</svg>
